<svg xmlns="http://www.w3.org/2000/svg" viewBox="0 0 512 512" fill="none">
  <!-- Background -->
  <rect width="512" height="512" rx="120" fill="#FFFBF5"/>
  <!-- Outer circle (warm gradient simulation) -->
  <circle cx="256" cy="256" r="200" fill="#FFF0E8"/>
  <!-- Heart shape -->
  <path d="M256 340 C256 340 150 280 150 210 C150 175 178 155 205 155 C225 155 244 165 256 180 C268 165 287 155 307 155 C334 155 362 175 362 210 C362 280 256 340 256 340Z" fill="#E8846A"/>
  <!-- Cherry blossom petals inside heart -->
  <circle cx="220" cy="215" r="12" fill="#FFF5EE" opacity="0.7"/>
  <circle cx="256" cy="200" r="12" fill="#FFF5EE" opacity="0.7"/>
  <circle cx="292" cy="215" r="12" fill="#FFF5EE" opacity="0.7"/>
  <circle cx="244" cy="235" r="8" fill="#FFF5EE" opacity="0.5"/>
  <circle cx="268" cy="235" r="8" fill="#FFF5EE" opacity="0.5"/>
  <!-- Sparkle accent top right -->
  <circle cx="340" cy="140" r="8" fill="#F4A0A0"/>
  <circle cx="360" cy="160" r="5" fill="#E8846A" opacity="0.5"/>
  <!-- Small leaf accent -->
  <ellipse cx="175" cy="145" rx="12" ry="6" fill="#7BAE7F" transform="rotate(-30 175 145)"/>
</svg>
